<?xml version="1.0" encoding="UTF-8" standalone="no"?>
<svg width="32px" height="32px" viewBox="0 0 32 32" version="1.1" xmlns="http://www.w3.org/2000/svg" xmlns:xlink="http://www.w3.org/1999/xlink" xmlns:sketch="http://www.bohemiancoding.com/sketch/ns">
    <!-- Generator: Sketch 3.2.2 (9983) - http://www.bohemiancoding.com/sketch -->
    <title>ic_apps_48px</title>
    <desc>Created with Sketch.</desc>
    <defs></defs>
    <g id="Page-1" stroke="none" stroke-width="1" fill="none" fill-rule="evenodd" sketch:type="MSPage">
        <g id="ic_apps_48px" sketch:type="MSLayerGroup" transform="translate(-8.000000, -8.000000)">
            <path d="M8,16 L16,16 L16,8 L8,8 L8,16 L8,16 Z M20,40 L28,40 L28,32 L20,32 L20,40 L20,40 Z M8,40 L16,40 L16,32 L8,32 L8,40 L8,40 Z M8,28 L16,28 L16,20 L8,20 L8,28 L8,28 Z M20,28 L28,28 L28,20 L20,20 L20,28 L20,28 Z M32,8 L32,16 L40,16 L40,8 L32,8 L32,8 Z M20,16 L28,16 L28,8 L20,8 L20,16 L20,16 Z M32,28 L40,28 L40,20 L32,20 L32,28 L32,28 Z M32,40 L40,40 L40,32 L32,32 L32,40 L32,40 Z" id="Shape" fill="#FFFFFF" sketch:type="MSShapeGroup"></path>
            <path d="M0,0 L48,0 L48,48 L0,48 L0,0 Z" id="Shape" sketch:type="MSShapeGroup"></path>
        </g>
    </g>
</svg>